<?xml version="1.0" encoding="UTF-8" standalone="no"?>
<!-- Created with Inkscape (http://www.inkscape.org/) -->

<svg
   xmlns:osb="http://www.openswatchbook.org/uri/2009/osb"
   xmlns:dc="http://purl.org/dc/elements/1.1/"
   xmlns:cc="http://creativecommons.org/ns#"
   xmlns:rdf="http://www.w3.org/1999/02/22-rdf-syntax-ns#"
   xmlns:svg="http://www.w3.org/2000/svg"
   xmlns="http://www.w3.org/2000/svg"
   xmlns:sodipodi="http://sodipodi.sourceforge.net/DTD/sodipodi-0.dtd"
   xmlns:inkscape="http://www.inkscape.org/namespaces/inkscape"
   width="32"
   height="32"
   viewBox="0 0 8.4666667 8.4666667"
   version="1.1"
   id="svg8"
   inkscape:version="0.92.4 5da689c313, 2019-01-14"
   sodipodi:docname="icon.svg"
   inkscape:export-filename="/home/hajile/src/knack.supply/products/curve-tracer/icon256.png"
   inkscape:export-xdpi="768.00006"
   inkscape:export-ydpi="768.00006">
  <defs
     id="defs2">
    <linearGradient
       id="linearGradient4524"
       osb:paint="solid">
      <stop
         style="stop-color:#000000;stop-opacity:1;"
         offset="0"
         id="stop4522" />
    </linearGradient>
  </defs>
  <sodipodi:namedview
     id="base"
     pagecolor="#ffffff"
     bordercolor="#666666"
     borderopacity="1.0"
     inkscape:pageopacity="0.0"
     inkscape:pageshadow="2"
     inkscape:zoom="22.627417"
     inkscape:cx="32.577286"
     inkscape:cy="11.37341"
     inkscape:document-units="mm"
     inkscape:current-layer="layer1"
     showgrid="true"
     units="px"
     inkscape:lockguides="false"
     showguides="true"
     inkscape:guide-bbox="true"
     inkscape:window-width="3784"
     inkscape:window-height="2264"
     inkscape:window-x="24"
     inkscape:window-y="104"
     inkscape:window-maximized="0">
    <inkscape:grid
       type="xygrid"
       id="grid3715" />
    <sodipodi:guide
       position="0.52916667,1.3229167"
       orientation="1,0"
       id="guide6000"
       inkscape:locked="false" />
    <sodipodi:guide
       position="0.396875,1.3229167"
       orientation="1,0"
       id="guide6002"
       inkscape:locked="false"
       inkscape:label=""
       inkscape:color="rgb(0,0,255)" />
    <sodipodi:guide
       position="8.0697917,8.4666667"
       orientation="1,0"
       id="guide6004"
       inkscape:locked="false"
       inkscape:label=""
       inkscape:color="rgb(0,0,255)" />
    <sodipodi:guide
       position="-1.5875,7.8052084"
       orientation="0,1"
       id="guide6110"
       inkscape:locked="false"
       inkscape:label=""
       inkscape:color="rgb(0,0,255)" />
    <sodipodi:guide
       position="-0.26458333,0.66145834"
       orientation="0,1"
       id="guide6112"
       inkscape:locked="false"
       inkscape:label=""
       inkscape:color="rgb(0,0,255)" />
    <sodipodi:guide
       position="0.13229167,7.9375"
       orientation="1,0"
       id="guide6114"
       inkscape:locked="false"
       inkscape:label=""
       inkscape:color="rgb(0,0,255)" />
    <sodipodi:guide
       position="-0.26458333,8.334375"
       orientation="0,1"
       id="guide6116"
       inkscape:locked="false"
       inkscape:label=""
       inkscape:color="rgb(0,0,255)" />
    <sodipodi:guide
       position="8.334375,8.9958334"
       orientation="1,0"
       id="guide6118"
       inkscape:locked="false"
       inkscape:label=""
       inkscape:color="rgb(0,0,255)" />
    <sodipodi:guide
       position="-0.52916667,0.13229167"
       orientation="0,1"
       id="guide6120"
       inkscape:locked="false"
       inkscape:label=""
       inkscape:color="rgb(0,0,255)" />
  </sodipodi:namedview>
  <metadata
     id="metadata5">
    <rdf:RDF>
      <cc:Work
         rdf:about="">
        <dc:format>image/svg+xml</dc:format>
        <dc:type
           rdf:resource="http://purl.org/dc/dcmitype/StillImage" />
        <dc:title></dc:title>
      </cc:Work>
    </rdf:RDF>
  </metadata>
  <g
     inkscape:label="Layer 1"
     inkscape:groupmode="layer"
     id="layer1"
     transform="translate(0,-288.53333)">
    <path
       style="fill:#1ba928;stroke:none;stroke-width:0.26458332px;stroke-linecap:butt;stroke-linejoin:miter;stroke-opacity:1;fill-opacity:1"
       d="M 8.2020832,291.17916 H 5.0270833 l -0.79375,0.26459 -0.79375,1.05833 -0.79375,1.85208 v 0.26459 h 0.2645833 l 1.0583334,-1.85209 0.5291666,-0.26458 1.0583333,-0.26458 h 2.6458333 z"
       id="path6108"
       inkscape:connector-curvature="0" />
    <path
       style="fill:#4bb82a;stroke:none;stroke-width:0.26458332px;stroke-linecap:butt;stroke-linejoin:miter;stroke-opacity:1;fill-opacity:1"
       d="M 8.2020832,289.0625 H 5.5562499 l -1.0583333,0.26458 -0.5291666,0.26458 -0.5291667,0.79375 -0.5291667,1.5875 -0.5291666,2.38125 h 0.2645833 l 0.79375,-1.85208 0.79375,-1.05833 1.0583333,-0.26459 h 2.9104166 z"
       id="path6098"
       inkscape:connector-curvature="0" />
    <path
       style="fill:#8cc540;fill-opacity:1;stroke:none;stroke-width:0.26681614;stroke-linecap:butt;stroke-linejoin:miter;stroke-miterlimit:4;stroke-dasharray:none;stroke-opacity:1"
       d="m 0.26458333,296.33854 c 0.53813556,0 1.21667537,0.006 1.47987277,-0.26458 0.6733696,-0.69139 0.9831826,-4.43356 1.7489407,-5.68855 0.8072034,-1.32291 0.8072034,-1.32291 4.7086865,-1.32291 v -0.26459 H 0.26458333 v 7.9375 -0.26458 z"
       id="path5998-5"
       inkscape:connector-curvature="0"
       sodipodi:nodetypes="ccscccccc" />
    <path
       style="fill:#0e9547;fill-opacity:1;stroke:none;stroke-width:0.26903042;stroke-linecap:butt;stroke-linejoin:miter;stroke-miterlimit:4;stroke-dasharray:none;stroke-opacity:1"
       d="m 0.26458333,296.33854 c 0.54710455,0 1.38814767,0.0117 1.66169997,-0.25289 0.5471045,-0.79375 0.8424063,-1.27025 1.6209271,-2.52524 0.8206568,-1.32291 0.8206568,-1.32291 4.7871646,-1.32291 v 4.23333 0.26458 l -8.06979167,0 z"
       id="path5998-3-7"
       inkscape:connector-curvature="0"
       sodipodi:nodetypes="ccsccccc" />
    <path
       style="fill:none;stroke:#ffffff;stroke-width:0.5291667;stroke-linecap:butt;stroke-linejoin:miter;stroke-miterlimit:4;stroke-dasharray:none;stroke-opacity:1"
       d="m 0.26458333,296.33854 c 0.52916664,0 1.19639747,0.006 1.45520827,-0.26458 0.6621467,-0.69139 0.9667962,-4.43356 1.7197917,-5.68855 0.79375,-1.32291 0.9260416,-1.19062 4.7625,-1.19062"
       id="path5998"
       inkscape:connector-curvature="0"
       sodipodi:nodetypes="ccsc" />
    <path
       style="fill:none;stroke:#ffffff;stroke-width:0.54245329;stroke-linecap:butt;stroke-linejoin:miter;stroke-miterlimit:4;stroke-dasharray:none;stroke-opacity:1"
       d="m 0.26458333,296.33854 c 0.55607344,0 1.41090407,0.0117 1.68894077,-0.25289 0.5560735,-0.79375 0.8562165,-1.27025 1.6474999,-2.52524 0.8341101,-1.32291 0.8341101,-1.32291 4.8656427,-1.32291"
       id="path5998-3"
       inkscape:connector-curvature="0"
       sodipodi:nodetypes="ccsc" />
    <path
       style="fill:none;stroke:#ffffff;stroke-width:0.54245329;stroke-linecap:butt;stroke-linejoin:miter;stroke-miterlimit:4;stroke-dasharray:none;stroke-opacity:1"
       d="m 0.26458333,296.33854 c 0.55607341,0 1.25723117,0.006 1.52920177,-0.26458 0.6958152,-0.69139 1.1149308,-2.61907 1.9424024,-3.85274 0.6989466,-1.04206 0.6989466,-1.04206 4.7304792,-1.04206"
       id="path5998-6"
       inkscape:connector-curvature="0"
       sodipodi:nodetypes="ccsc" />
    <path
       style="fill:none;stroke:#fdfdfd;stroke-width:0.00589869;stroke-miterlimit:4;stroke-dasharray:none;stroke-opacity:1"
       d="m 0.39687653,296.47083 c 0.42252538,-0.026 0.67859287,0.0918 0.86611787,-9.5e-4 0.1135886,-0.0562 0.7911132,-0.3799 0.8709154,-0.50234 0.1957096,-0.30029 0.3327266,-0.44065 0.6516982,-1.08038 0.2589972,-0.51944 0.4599833,-0.81831 0.6647789,-1.16886 0.098135,-0.16798 0.2815672,-0.42612 0.3646388,-0.55457 0.2390539,-0.36962 0.4101249,-0.41238 0.6496231,-0.53164 0.2817127,-0.14028 0.6748347,-0.20567 1.4253434,-0.23708 0.3090335,-0.0129 0.6441768,-0.0179 1.4655145,-0.0215 l 0.8465766,-0.004 v 2.11445 l 0,2.25145 -3.5663336,-10e-4 c -1.9614837,-5.5e-4 -4.25523933,0.002 -4.23887317,9e-4 z"
       id="path6043"
       inkscape:connector-curvature="0"
       sodipodi:nodetypes="csssssssscccscc" />
    <rect
       id="rect3713"
       width="8.1999912"
       height="8.1999912"
       x="0.1333376"
       y="288.66666"
       style="fill:none;fill-opacity:1;stroke:#404042;stroke-width:0.26667517;stroke-miterlimit:4;stroke-dasharray:none;stroke-opacity:1"
       ry="0" />
  </g>
</svg>
